<svg width="38" height="32" viewBox="0 0 38 32" fill="none" xmlns="http://www.w3.org/2000/svg">
<path d="M8.30154 17.2027C10.6203 16.284 12.4797 16.5246 13.8797 17.9246C15.2797 19.3246 15.6953 21.5559 15.1265 24.6183C14.689 26.8934 13.7265 28.6433 12.239 29.8683C10.7953 31.0496 9.11092 31.6402 7.18593 31.6402C4.5609 31.6402 2.7453 30.634 1.73903 28.6214C0.732794 26.5652 0.535917 23.809 1.14842 20.3527C1.49841 18.4715 2.06716 16.5684 2.85465 14.6433C3.64218 12.7183 4.69218 10.7496 6.00465 8.73712C7.31716 6.72463 9.02341 4.9746 11.1234 3.48712C13.2234 1.99961 15.5421 1.03711 18.0797 0.599609L17.4234 7.55584C15.2797 7.99336 13.3765 9.10898 11.7141 10.9027C10.0515 12.6527 8.91402 14.7527 8.30154 17.2027ZM28.0546 17.2027C30.3734 16.284 32.2328 16.5246 33.6328 17.9246C35.0328 19.3246 35.4484 21.5559 34.8797 24.6183C34.4421 26.8934 33.4796 28.6433 31.9922 29.8683C30.5484 31.0496 28.864 31.6402 26.939 31.6402C24.3141 31.6402 22.4984 30.634 21.4922 28.6214C20.4859 26.5652 20.2891 23.809 20.9015 20.3527C21.2516 18.4715 21.8203 16.5684 22.6078 14.6433C23.3953 12.7183 24.4453 10.7496 25.7578 8.73712C27.0703 6.72463 28.7765 4.9746 30.8765 3.48712C32.9765 1.99961 35.2953 1.03711 37.8328 0.599609L37.1765 7.55584C35.0328 7.99336 33.1297 9.10898 31.4672 10.9027C29.8047 12.6527 28.6672 14.7527 28.0546 17.2027Z" fill="#F6F6F6"/>
</svg>
