<svg aria-hidden="true" style="position: absolute; width: 0; height: 0; overflow: hidden;" version="1.1" xmlns="http://www.w3.org/2000/svg" xmlns:xlink="http://www.w3.org/1999/xlink">
<defs>

<symbol id="icon-basket" viewBox="0 0 24 24">
<path d="M18 7v13c0 0.276-0.111 0.525-0.293 0.707s-0.431 0.293-0.707 0.293h-10c-0.276 0-0.525-0.111-0.707-0.293s-0.293-0.431-0.293-0.707v-13zM17 5v-1c0-0.828-0.337-1.58-0.879-2.121s-1.293-0.879-2.121-0.879h-4c-0.828 0-1.58 0.337-2.121 0.879s-0.879 1.293-0.879 2.121v1h-4c-0.552 0-1 0.448-1 1s0.448 1 1 1h1v13c0 0.828 0.337 1.58 0.879 2.121s1.293 0.879 2.121 0.879h10c0.828 0 1.58-0.337 2.121-0.879s0.879-1.293 0.879-2.121v-13h1c0.552 0 1-0.448 1-1s-0.448-1-1-1zM9 5v-1c0-0.276 0.111-0.525 0.293-0.707s0.431-0.293 0.707-0.293h4c0.276 0 0.525 0.111 0.707 0.293s0.293 0.431 0.293 0.707v1zM9 11v6c0 0.552 0.448 1 1 1s1-0.448 1-1v-6c0-0.552-0.448-1-1-1s-1 0.448-1 1zM13 11v6c0 0.552 0.448 1 1 1s1-0.448 1-1v-6c0-0.552-0.448-1-1-1s-1 0.448-1 1z"></path>
</symbol>
<symbol id="icon-dumbbell" viewBox="0 0 32 32">
<path d="M7.36 9.143h-1.92c-0.532 0-0.96 0.459-0.96 1.029v4.457h-0.96c-0.176 0-0.32 0.154-0.32 0.343v2.057c0 0.188 0.144 0.343 0.32 0.343h0.96v4.457c0 0.57 0.428 1.028 0.96 1.028h1.92c0.532 0 0.96-0.459 0.96-1.028v-11.657c0-0.57-0.428-1.029-0.96-1.029zM28.48 14.629h-0.96v-4.457c0-0.57-0.428-1.029-0.96-1.029h-1.92c-0.532 0-0.96 0.459-0.96 1.029v11.657c0 0.57 0.428 1.028 0.96 1.028h1.92c0.532 0 0.96-0.459 0.96-1.028v-4.457h0.96c0.176 0 0.32-0.154 0.32-0.343v-2.057c0-0.189-0.144-0.343-0.32-0.343zM21.44 6.4h-1.92c-0.532 0-0.96 0.459-0.96 1.029v7.2h-5.12v-7.2c0-0.57-0.428-1.029-0.96-1.029h-1.92c-0.532 0-0.96 0.459-0.96 1.029v17.143c0 0.57 0.428 1.029 0.96 1.029h1.92c0.532 0 0.96-0.459 0.96-1.029v-7.2h5.12v7.2c0 0.57 0.428 1.029 0.96 1.029h1.92c0.532 0 0.96-0.459 0.96-1.029v-17.143c0-0.57-0.428-1.029-0.96-1.029z"></path>
</symbol>
<symbol id="icon-facebook" viewBox="0 0 32 32">
<path d="M19.52 4.64c0.24 0 0.48 0 0.96 0v3.6c-0.24 0-0.72 0-1.2 0s-0.96 0-1.2 0.24c-0.24 0.24-0.24 0.48-0.24 1.040 0 0.48 0 0.8 0 1.28h2.64v3.040h-2.64v13.2h-4.080v-13.28h-2.16v-3.040h2.16v-1.040c0-1.76 0.24-3.040 0.72-3.6 0.72-1.040 2.16-1.52 4.32-1.52 0.24 0.080 0.48 0.080 0.72 0.080z"></path>
</symbol>
<symbol id="icon-heart" viewBox="0 0 36 32">
<path stroke-linejoin="round" stroke-linecap="round" stroke-miterlimit="4" stroke-width="2.6667" d="M30.875 5.052c-0.757-0.757-1.655-1.358-2.644-1.767s-2.049-0.621-3.119-0.621c-1.070 0-2.13 0.211-3.119 0.621s-1.887 1.010-2.644 1.767l-1.57 1.57-1.57-1.57c-1.528-1.528-3.601-2.387-5.763-2.387s-4.235 0.859-5.763 2.387c-1.528 1.528-2.387 3.601-2.387 5.763s0.859 4.235 2.387 5.763l13.096 13.096 13.096-13.096c0.757-0.757 1.358-1.655 1.767-2.644s0.621-2.049 0.621-3.119c0-1.070-0.211-2.13-0.621-3.119s-1.010-1.887-1.767-2.644z"></path>
</symbol>
<symbol id="icon-instagram" viewBox="0 0 32 32">
<path d="M28.718 10.756c-0.016-1.074-0.215-2.14-0.596-3.145-0.667-1.716-2.024-3.073-3.743-3.737-0.994-0.373-2.044-0.573-3.108-0.596-1.368-0.061-1.801-0.078-5.273-0.078s-3.916 0-5.274 0.078c-1.062 0.023-2.113 0.223-3.106 0.596-1.719 0.664-3.078 2.021-3.743 3.737-0.374 0.992-0.576 2.041-0.596 3.101-0.061 1.367-0.080 1.8-0.080 5.265s0 3.909 0.080 5.265c0.021 1.062 0.222 2.109 0.596 3.104 0.667 1.714 2.024 3.071 3.744 3.735 0.989 0.386 2.040 0.605 3.106 0.639 1.369 0.061 1.803 0.080 5.274 0.080s3.916 0 5.274-0.080c1.062-0.021 2.112-0.221 3.108-0.595 1.719-0.666 3.076-2.022 3.743-3.737 0.374-0.994 0.574-2.041 0.596-3.104 0.061-1.365 0.080-1.798 0.080-5.265-0.003-3.466-0.003-3.906-0.082-5.264zM15.99 22.531c-3.631 0-6.572-2.936-6.572-6.561s2.941-6.561 6.572-6.561c3.628 0 6.572 2.936 6.572 6.561s-2.944 6.561-6.572 6.561zM22.824 10.696c-0.849 0-1.532-0.684-1.532-1.53s0.684-1.53 1.532-1.53c0.846 0 1.531 0.684 1.531 1.53s-0.685 1.53-1.531 1.53z"></path>
<path d="M15.992 19.976c2.211 0 4.004-1.793 4.004-4.004s-1.793-4.004-4.004-4.004c-2.211 0-4.004 1.793-4.004 4.004s1.793 4.004 4.004 4.004z"></path>
</symbol>
<symbol id="icon-lapki" viewBox="0 0 38 32">
<path d="M8.302 17.203c2.319-0.919 4.178-0.678 5.578 0.722s1.816 3.631 1.247 6.694c-0.438 2.275-1.4 4.025-2.887 5.25-1.444 1.181-3.128 1.772-5.053 1.772-2.625 0-4.441-1.006-5.447-3.019-1.006-2.056-1.203-4.812-0.591-8.269 0.35-1.881 0.919-3.784 1.706-5.709s1.838-3.894 3.15-5.906c1.313-2.013 3.019-3.763 5.119-5.25s4.419-2.45 6.956-2.888l-0.656 6.956c-2.144 0.438-4.047 1.553-5.709 3.347-1.663 1.75-2.8 3.85-3.413 6.3zM28.055 17.203c2.319-0.919 4.178-0.678 5.578 0.722s1.816 3.631 1.247 6.694c-0.438 2.275-1.4 4.025-2.887 5.25-1.444 1.181-3.128 1.772-5.053 1.772-2.625 0-4.441-1.006-5.447-3.019-1.006-2.056-1.203-4.812-0.591-8.269 0.35-1.881 0.919-3.784 1.706-5.709s1.837-3.894 3.15-5.906 3.019-3.763 5.119-5.25c2.1-1.488 4.419-2.45 6.956-2.888l-0.656 6.956c-2.144 0.438-4.047 1.553-5.709 3.347-1.663 1.75-2.8 3.85-3.413 6.3z"></path>
</symbol>
<symbol id="icon-line" viewBox="0 0 32 32">
<path stroke-linejoin="round" stroke-linecap="round" stroke-miterlimit="4" stroke-width="2.7733" d="M16 29.867l13.867-13.867M29.867 16l-13.867-13.867M29.867 16h-27.733"></path>
</symbol>
<symbol id="icon-arrow-up2" viewBox="0 0 32 32">
<path d="M27.414 12.586l-10-10c-0.781-0.781-2.047-0.781-2.828 0l-10 10c-0.781 0.781-0.781 2.047 0 2.828s2.047 0.781 2.828 0l6.586-6.586v19.172c0 1.105 0.895 2 2 2s2-0.895 2-2v-19.172l6.586 6.586c0.39 0.39 0.902 0.586 1.414 0.586s1.024-0.195 1.414-0.586c0.781-0.781 0.781-2.047 0-2.828z"></path>
</symbol>
<symbol id="icon-Man" viewBox="0 0 29 32">
<path d="M28.367 9.451c-0.429-0.501-1.193-0.567-1.706-0.149l-3.359 2.757-1.545-3.739c-0.055-0.14-0.138-0.258-0.234-0.362-0.316-0.686-0.864-1.275-1.619-1.617-0.328-0.146-0.667-0.224-1.005-0.262-0.075-0.038-0.142-0.088-0.227-0.114l-5.911-1.61c-0.332-0.088-0.665-0.031-0.938 0.125-0.325 0.107-0.603 0.338-0.736 0.672l-2.226 5.592c-0.241 0.608 0.067 1.294 0.692 1.534 0.621 0.236 1.325-0.068 1.568-0.678l1.88-4.722 2.692 0.731c-0.066 0.104-0.137 0.201-0.19 0.312l-3.451 7.309c-0.050 0.107-0.076 0.217-0.112 0.328l-4.194 6.871-7.019 2.294c-0.794 0.58-0.963 1.674-0.376 2.45 0.591 0.778 1.713 0.943 2.506 0.369l7.182-2.417c0.22-0.156 0.38-0.36 0.5-0.58 0.090-0.094 0.193-0.168 0.262-0.284l2.501-4.096 4.439 3.696-4.749 5.23c-0.654 0.721-0.589 1.832 0.152 2.469 0.74 0.643 1.873 0.575 2.531-0.149l5.927-6.524c0.184-0.201 0.294-0.433 0.369-0.676 0.044-0.132 0.044-0.269 0.055-0.406 0-0.069 0.027-0.132 0.021-0.196-0.016-0.478-0.215-0.943-0.615-1.274l-4.084-3.403c0.294-0.274 0.544-0.6 0.725-0.983l2.646-5.599 0.848 2.206c0.036 0.196 0.103 0.388 0.245 0.549 0.128 0.149 0.291 0.248 0.465 0.317 0.018 0.009 0.039 0.010 0.060 0.016 0.11 0.038 0.222 0.075 0.337 0.080 0.136 0.012 0.275-0.005 0.415-0.043 0.004-0.002 0.005-0.002 0.005-0.002 0.037-0.009 0.075-0.002 0.112-0.017 0.197-0.073 0.348-0.196 0.477-0.34l4.82-3.998c0.512-0.421 0.296-1.166-0.135-1.667z"></path>
<path d="M22.27 6.602c1.866 0 3.378-1.478 3.378-3.301s-1.513-3.301-3.378-3.301c-1.866 0-3.378 1.478-3.378 3.301s1.512 3.301 3.378 3.301z"></path>
</symbol>
<symbol id="icon-mob-menu" viewBox="0 0 64 32">
<path stroke-linejoin="round" stroke-linecap="round" stroke-miterlimit="4" stroke-width="4" d="M56 20.667h-48"></path>
<path stroke-linejoin="round" stroke-linecap="round" stroke-miterlimit="4" stroke-width="4" d="M56 10h-48"></path>
</symbol>
<symbol id="icon-search" viewBox="0 0 36 36">
<path d="M19.427 20.427c-1.39 0.99-3.090 1.573-4.927 1.573-4.694 0-8.5-3.806-8.5-8.5s3.806-8.5 8.5-8.5c4.694 0 8.5 3.806 8.5 8.5 0 1.837-0.583 3.537-1.573 4.927l5.585 5.585c0.55 0.55 0.546 1.431-0 1.976l-0.023 0.023c-0.544 0.544-1.431 0.546-1.976 0l-5.585-5.585zM14.5 20c3.59 0 6.5-2.91 6.5-6.5s-2.91-6.5-6.5-6.5c-3.59 0-6.5 2.91-6.5 6.5s2.91 6.5 6.5 6.5v0z"></path>
</symbol>
<symbol id="icon-Star-1" viewBox="0 0 32 32">
<path d="M14.89 2.282c0.737-2.268 3.945-2.268 4.682 0l2.080 6.402c0.33 1.014 1.275 1.701 2.341 1.701h6.731c2.384 0 3.376 3.051 1.447 4.453l-5.446 3.957c-0.863 0.627-1.224 1.738-0.894 2.752l2.080 6.402c0.737 2.268-1.859 4.154-3.788 2.752l-5.446-3.957c-0.863-0.627-2.031-0.627-2.894 0l-5.446 3.957c-1.929 1.402-4.525-0.484-3.788-2.752l2.080-6.402c0.33-1.014-0.031-2.125-0.894-2.752l-5.446-3.957c-1.929-1.402-0.938-4.453 1.447-4.453h6.731c1.066 0 2.012-0.687 2.341-1.701l2.080-6.402z"></path>
</symbol>
<symbol id="icon-x" viewBox="0 0 32 32">
<path stroke-linejoin="round" stroke-linecap="round" stroke-miterlimit="4" stroke-width="4.5714" d="M29.333 2.667l-26.667 26.667M2.666 2.667l26.667 26.667"></path>
</symbol>
<symbol id="icon-youtube" viewBox="0 0 32 32">
<path d="M24.24 6c-1.36-0.080-4.16-0.16-8.4-0.16h-0.56c-4.080 0-6.8 0.080-8.16 0.24-1.84 0.16-3.12 0.64-3.84 1.28-0.64 0.56-1.12 1.6-1.28 2.96-0.080 0.88-0.16 2.72-0.16 5.52v0.4c0 2.64 0.080 4.48 0.24 5.36 0.24 1.28 0.64 2.24 1.44 2.8 0.8 0.64 2.16 1.040 4.080 1.2 1.36 0.080 4.16 0.16 8.4 0.16h0.56c4.080 0 6.8-0.080 8.16-0.24 1.84-0.16 3.12-0.64 3.84-1.28 0.64-0.56 1.12-1.6 1.28-2.96 0.080-0.88 0.16-2.72 0.16-5.52v-0.4c0-2.64-0.080-4.48-0.24-5.36-0.24-1.28-0.64-2.24-1.44-2.8-0.8-0.64-2.16-1.040-4.080-1.2zM21.12 15.84l-8.8 5.28v-10.56l8.8 5.28z"></path>
</symbol>

<symbol id="icon-arrow-right" viewBox="0 0 20 20">
<path d="M16.172 9l-6.071-6.071 1.414-1.414 8.485 8.485-8.485 8.485-1.414-1.414 6.071-6.071h-16.172v-2z"></path>
</symbol>
<symbol id="icon-arrow-line" viewBox="0 0 32 32">
<path stroke-linejoin="round" stroke-linecap="round" stroke-miterlimit="4" stroke-width="2.6" d="M15 28l13-13M28 15l-13-13M28 15h-26"></path>
</symbol>
<symbol id="icon-trash-01" viewBox="0 0 32 32">
<path stroke-linejoin="round" stroke-linecap="round" stroke-miterlimit="4" stroke-width="2.6" d="M21.333 8v-1.067c0-1.493 0-2.24-0.291-2.811-0.256-0.502-0.664-0.91-1.165-1.165-0.57-0.291-1.317-0.291-2.811-0.291h-2.133c-1.493 0-2.24 0-2.811 0.291-0.502 0.256-0.91 0.664-1.165 1.165-0.291 0.57-0.291 1.317-0.291 2.811v1.067M13.333 15.333v6.667M18.667 15.333v6.667M4 8h24M25.333 8v14.933c0 2.24 0 3.36-0.436 4.216-0.384 0.753-0.995 1.365-1.748 1.748-0.856 0.436-1.976 0.436-4.216 0.436h-5.867c-2.24 0-3.36 0-4.216-0.436-0.753-0.384-1.365-0.995-1.748-1.748-0.436-0.856-0.436-1.976-0.436-4.216v-14.933"></path>
</symbol>
<symbol id="icon-trash_new" viewBox="0 0 28 32">
<path stroke-linejoin="round" stroke-linecap="round" stroke-miterlimit="4" stroke-width="2.6" d="M19.333 8v-1.067c0-1.493 0-2.24-0.291-2.811-0.256-0.502-0.664-0.91-1.165-1.165-0.57-0.291-1.317-0.291-2.811-0.291h-2.133c-1.493 0-2.24 0-2.811 0.291-0.502 0.256-0.91 0.664-1.165 1.165-0.291 0.57-0.291 1.317-0.291 2.811v1.067M11.333 15.333v6.667M16.667 15.333v6.667M2 8h24M23.333 8v14.933c0 2.24 0 3.36-0.436 4.216-0.384 0.753-0.995 1.364-1.748 1.748-0.856 0.436-1.976 0.436-4.216 0.436h-5.867c-2.24 0-3.36 0-4.216-0.436-0.753-0.384-1.365-0.995-1.748-1.748-0.436-0.856-0.436-1.976-0.436-4.216v-14.933"></path>
</symbol>
<symbol id="dumbbell-big" width="52" height="32" viewBox="0 0 52 32">
<path fill="#d0d0d0" d="M6.761 0c2.528 0 5.057 0 7.662 0 0 4.165 0 8.329 0 12.62 7.734 0 15.468 0 23.437 0 0-4.165 0-8.329 0-12.62 2.528 0 5.057 0 7.662 0 0 1.934 0 3.867 0 5.859 0.45 0.027 0.901 0.055 1.364 0.083 0.872 0.057 0.872 0.057 1.762 0.114 0.58 0.037 1.161 0.073 1.759 0.111 1.424 0.143 1.424 0.143 1.875 0.593 0.046 0.604 0.062 1.21 0.065 1.816 0.003 0.385 0.006 0.77 0.009 1.167 0.001 0.419 0.001 0.838 0.002 1.269 0.002 0.641 0.002 0.641 0.005 1.295 0.002 0.906 0.003 1.812 0.003 2.718 0.001 1.39 0.009 2.78 0.018 4.169 0.001 0.878 0.002 1.756 0.003 2.635 0.003 0.418 0.006 0.836 0.010 1.266-0.001 0.387-0.003 0.773-0.004 1.171 0.001 0.341 0.001 0.682 0.002 1.033-0.111 0.841-0.111 0.841-1.013 1.743-1.37 0.088-1.37 0.088-2.986 0.056-0.803-0.012-0.803-0.012-1.623-0.025-0.619-0.016-0.619-0.016-1.25-0.032 0 1.636 0 3.272 0 4.958-2.528 0-5.057 0-7.662 0-0.619-1.238-0.456-2.171-0.396-3.553 0.019-0.474 0.039-0.947 0.059-1.435 0.041-0.905 0.041-0.905 0.084-1.829 0.126-2.872 0.126-2.872 0.254-5.803-7.734 0-15.468 0-23.437 0 0.166 3.816 0.166 3.816 0.337 7.632 0.019 0.474 0.039 0.947 0.059 1.435 0.021 0.486 0.043 0.972 0.064 1.473-0.010 1.178-0.010 1.178-0.46 2.079-2.528 0-5.057 0-7.662 0 0-1.636 0-3.272 0-4.958-0.619 0.016-0.619 0.016-1.25 0.032-0.803 0.012-0.803 0.012-1.623 0.025-0.533 0.010-1.067 0.021-1.616 0.032-1.37-0.088-1.37-0.088-2.271-0.989-0.111-0.841-0.111-0.841-0.11-1.874-0.001-0.387-0.003-0.773-0.004-1.171 0.003-0.418 0.006-0.836 0.010-1.266 0-0.428 0-0.856 0.001-1.296 0.001-0.905 0.005-1.81 0.010-2.715 0.008-1.391 0.009-2.781 0.009-4.172 0.002-0.878 0.005-1.755 0.008-2.633 0.001-0.419 0.001-0.838 0.002-1.269 0.003-0.385 0.006-0.77 0.009-1.167 0.002-0.341 0.003-0.681 0.005-1.032 0.060-0.784 0.060-0.784 0.511-1.235 1.059-0.106 2.121-0.187 3.183-0.254 0.872-0.057 0.872-0.057 1.762-0.114 0.45-0.027 0.901-0.055 1.364-0.083 0-1.934 0-3.867 0-5.859z"></path>
<path fill="#cdcdcd" d="M37.859 0c2.528 0 5.057 0 7.662 0 0 1.934 0 3.867 0 5.859 0.45 0.027 0.901 0.055 1.364 0.083 0.582 0.038 1.163 0.076 1.762 0.114 0.871 0.055 0.871 0.055 1.759 0.111 1.424 0.143 1.424 0.143 1.875 0.593 0.046 0.604 0.062 1.21 0.065 1.816 0.003 0.385 0.006 0.77 0.009 1.167 0.001 0.419 0.001 0.838 0.002 1.269 0.002 0.641 0.002 0.641 0.005 1.295 0.002 0.906 0.003 1.812 0.003 2.718 0.001 1.39 0.009 2.78 0.018 4.169 0.001 0.878 0.002 1.756 0.003 2.635 0.003 0.418 0.006 0.836 0.010 1.266-0.001 0.387-0.003 0.773-0.004 1.171 0.001 0.341 0.001 0.682 0.002 1.033-0.111 0.841-0.111 0.841-1.013 1.743-1.37 0.088-1.37 0.088-2.986 0.056-0.803-0.012-0.803-0.012-1.623-0.025-0.619-0.016-0.619-0.016-1.25-0.032 0 1.636 0 3.272 0 4.958-2.528 0-5.057 0-7.662 0-0.651-1.302-0.484-2.405-0.461-3.858 0.004-0.303 0.009-0.607 0.013-0.92 0.015-1.005 0.033-2.009 0.051-3.014 0.011-0.696 0.022-1.392 0.032-2.088 0.028-1.833 0.059-3.666 0.091-5.499 0.032-1.87 0.061-3.74 0.090-5.61 0.058-3.67 0.12-7.34 0.182-11.011z"></path>
<path fill="#404040" d="M14.423 12.62c7.734 0 15.468 0 23.437 0 0 2.231 0 4.462 0 6.761-7.734 0-15.468 0-23.437 0 0-0.297 0-0.595 0-0.901 7.139-0.149 14.278-0.297 21.634-0.451 0-0.446 0-0.892 0-1.352-7.139-0.149-14.278-0.297-21.634-0.451 0-1.19 0-2.38 0-3.606z"></path>
<path fill="#878787" d="M6.761 0c2.528 0 5.057 0 7.662 0 0.021 1.965 0.039 3.93 0.050 5.895 0.005 0.668 0.011 1.337 0.018 2.005 0.011 0.961 0.016 1.922 0.020 2.883 0.005 0.578 0.009 1.157 0.014 1.752-0.102 1.436-0.102 1.436-1.004 2.788-0.877 0.132-0.877 0.132-1.859 0.085-0.576-0.028-1.153-0.056-1.746-0.085-0.223-0.669-0.223-0.669-0.451-1.352-0.297-0.149-0.595-0.297-0.901-0.451-0.149 0.297-0.297 0.595-0.451 0.901-0.537-3.76-0.493-7.479-0.451-11.268-0.297 0-0.595 0-0.901 0 0-1.041 0-2.082 0-3.155z"></path>
<path fill="#888" d="M37.859 0c2.528 0 5.057 0 7.662 0 0 0.892 0 1.785 0 2.704-0.297 0-0.595 0-0.901 0 0 4.016 0 8.032 0 12.169-1.115 0.223-1.115 0.223-2.254 0.451-1.042-0.873-1.042-0.873-1.803-1.803-0.595 0.446-1.19 0.892-1.803 1.352-0.901-0.901-0.901-0.901-1.004-2.286 0.005-0.581 0.009-1.161 0.014-1.759 0.001-0.309 0.003-0.618 0.004-0.936 0.005-0.987 0.016-1.975 0.028-2.962 0.005-0.669 0.009-1.338 0.012-2.007 0.009-1.641 0.027-3.282 0.044-4.923z"></path>
<path fill="#d1d1d1" d="M3.916 15.042c1.042 0.282 1.042 0.282 1.778 1.136 0.89 2.021 0.761 3.867 0.701 6.048-0.006 0.42-0.012 0.84-0.019 1.272-0.016 1.032-0.038 2.063-0.066 3.094 0.297 0 0.595 0 0.901 0 0-1.339 0-2.677 0-4.056 0.149 0 0.297 0 0.451 0 0 2.082 0 4.165 0 6.31-0.297 0-0.595 0-0.901 0 0-0.595 0-1.19 0-1.803-0.412 0.010-0.825 0.021-1.25 0.032-0.803 0.012-0.803 0.012-1.623 0.025-0.533 0.010-1.067 0.021-1.616 0.032-1.37-0.088-1.37-0.088-2.271-0.989-0.236-1.388-0.209-2.791-0.225-4.197-0.019-0.385-0.037-0.771-0.056-1.168-0.034-2.778-0.034-2.778 0.857-3.963 1.059-0.913 1.977-1.453 3.34-1.77z"></path>
<path fill="#cacaca" d="M50.197 14.958c0.39 0.121 0.781 0.242 1.183 0.366 0 0.446 0 0.892 0 1.352 0.297 0 0.595 0 0.901 0 0.026 1.559 0.042 3.117 0.056 4.676 0.008 0.444 0.015 0.888 0.023 1.345 0.003 0.424 0.006 0.848 0.009 1.285 0.005 0.392 0.009 0.784 0.014 1.187-0.102 0.971-0.102 0.971-1.004 1.873-1.271 0.088-1.271 0.088-2.761 0.056-0.494-0.008-0.988-0.016-1.496-0.025-0.38-0.010-0.76-0.021-1.151-0.032-0.079-1.605-0.127-3.21-0.169-4.817-0.023-0.454-0.045-0.908-0.069-1.376-0.065-3.278-0.065-3.278 0.798-4.547 1.268-1.123 1.964-1.439 3.665-1.345z"></path>
<path fill="#b5b5b5" d="M14.423 16.225c7.139 0 14.278 0 21.634 0 0.223 0.892 0.223 0.892 0.451 1.803-0.451 0.451-0.451 0.451-1.326 0.505-0.383-0.001-0.767-0.002-1.162-0.003-0.65-0-0.65-0-1.312-0-0.471-0.002-0.942-0.005-1.427-0.007-0.48-0.001-0.959-0.001-1.453-0.002-1.538-0.003-3.077-0.008-4.616-0.014-1.040-0.002-2.080-0.004-3.121-0.006-2.556-0.005-5.112-0.013-7.668-0.022 0-0.744 0-1.487 0-2.254z"></path>
<path fill="#7c7c7c" d="M6.761 5.859c0 3.123 0 6.247 0 9.465-0.446-0.297-0.892-0.595-1.352-0.901 0-0.297 0-0.595 0-0.901-0.529-0.041-0.529-0.041-1.069-0.083-0.456-0.038-0.912-0.076-1.382-0.114-0.682-0.055-0.682-0.055-1.379-0.111-1.129-0.143-1.129-0.143-1.579-0.593-0.045-0.976-0.058-1.953-0.056-2.93-0.001-0.534-0.002-1.069-0.004-1.62 0.060-1.31 0.060-1.31 0.511-1.761 0.635-0.106 1.275-0.187 1.916-0.254 0.519-0.057 0.519-0.057 1.049-0.114 1.112-0.084 2.23-0.083 3.345-0.083z"></path>
<path fill="#7c7c7c" d="M45.972 5.859c0.978 0.029 1.955 0.091 2.93 0.169 0.535 0.041 1.069 0.081 1.62 0.123 1.31 0.158 1.31 0.158 1.761 0.609 0.033 1.061 0.038 2.122 0.028 3.183-0.004 0.582-0.008 1.163-0.012 1.762-0.005 0.45-0.010 0.901-0.016 1.364-0.375-0.005-0.749-0.010-1.136-0.016-0.735-0.006-0.735-0.006-1.484-0.012-0.729-0.008-0.729-0.008-1.474-0.016-1.345-0.017-1.345-0.017-2.667 0.495-0.012-1.193-0.021-2.385-0.028-3.577-0.004-0.34-0.008-0.68-0.011-1.031-0.004-0.868 0.016-1.736 0.040-2.603 0.149-0.149 0.297-0.297 0.451-0.451z"></path>
<path fill="#adadad" d="M6.761 3.155c0.297 0 0.595 0 0.901 0 0.297 3.421 0.595 6.842 0.901 10.366 0.446 0.149 0.892 0.297 1.352 0.451 0 0.297 0 0.595 0 0.901 1.807 0.081 1.807 0.081 3.606 0 0.297-0.297 0.595-0.595 0.901-0.901-0.149 0.595-0.297 1.19-0.451 1.803-0.342 0.027-0.684 0.055-1.037 0.083-0.448 0.038-0.896 0.076-1.357 0.114-0.444 0.037-0.889 0.073-1.347 0.111-1.259 0.106-1.259 0.106-2.569 0.593-0.297-0.149-0.595-0.297-0.901-0.451 0 3.421 0 6.842 0 10.366-1.309-1.963-0.943-3.923-0.866-6.198 0.069-2.433 0.069-2.433-0.937-4.619-2.25 0.216-3.087 0.4-4.958 1.803 0-1.636 0-3.272 0-4.958 0.883 0.139 1.765 0.28 2.648 0.423 0.491 0.078 0.983 0.157 1.489 0.238 1.271 0.241 1.271 0.241 2.173 0.692 0.149-3.57 0.297-7.139 0.451-10.817z"></path>
<path fill="#222" d="M14.423 12.62c7.734 0 15.468 0 23.437 0 0 0.595 0 1.19 0 1.803-7.734 0-15.468 0-23.437 0 0-0.595 0-1.19 0-1.803z"></path>
<path fill="#9d9d9d" d="M44.62 2.704c0.297 0 0.595 0 0.901 0 0.679 3.619 0.287 7.173 0 10.817 0.507-0.22 0.507-0.22 1.025-0.445 1.975-0.733 3.751-0.667 5.736-0.005 0 1.19 0 2.38 0 3.606-0.297 0-0.595 0-0.901 0 0-0.446 0-0.892 0-1.352-1.544-0.144-2.5-0.101-3.901 0.592-1.65 1.892-1.409 3.849-1.423 6.282-0.011 0.465-0.023 0.93-0.034 1.408-0.027 1.146-0.043 2.291-0.050 3.437-0.149 0-0.297 0-0.451 0-0.011-0.364-0.023-0.728-0.034-1.103-0.052-1.642-0.108-3.284-0.163-4.925-0.018-0.573-0.035-1.146-0.054-1.736-0.019-0.546-0.038-1.092-0.057-1.655-0.017-0.505-0.033-1.010-0.050-1.531-0.014-1.205-0.014-1.205-0.543-2.121-0.038-0.85-0.048-1.702-0.044-2.553 0.001-0.505 0.003-1.011 0.004-1.532 0.004-0.53 0.008-1.060 0.011-1.606 0.002-0.533 0.004-1.067 0.006-1.616 0.005-1.32 0.013-2.641 0.022-3.961z"></path>
<path fill="#666" d="M36.056 16.225c0.595 0 1.19 0 1.803 0 0 1.041 0 2.082 0 3.155-7.734 0-15.468 0-23.437 0 0-0.297 0-0.595 0-0.901 7.139-0.149 14.278-0.297 21.634-0.451 0-0.595 0-1.19 0-1.803z"></path>
<path fill="#9a9a9a" d="M14.423 16.225c7.139 0 14.278 0 21.634 0 0.223 0.892 0.223 0.892 0.451 1.803-0.451 0.451-0.451 0.451-1.326 0.505-0.383-0.001-0.767-0.002-1.162-0.003-0.65-0-0.65-0-1.312-0-0.471-0.002-0.942-0.005-1.427-0.007-0.48-0.001-0.959-0.001-1.453-0.002-1.538-0.003-3.077-0.008-4.616-0.014-1.040-0.002-2.080-0.004-3.121-0.006-2.556-0.005-5.112-0.013-7.668-0.022 0-0.744 0-1.487 0-2.254zM17.127 16.676c0 0.446 0 0.892 0 1.352 6.098 0 12.196 0 18.479 0 0-0.446 0-0.892 0-1.352-6.098 0-12.196 0-18.479 0z"></path>
<path fill="#d0d0d0" d="M51.38 15.324c0 0.446 0 0.892 0 1.352 0.297 0 0.595 0 0.901 0 0 0.892 0 1.785 0 2.704-0.347-0.005-0.695-0.010-1.053-0.016-0.452-0.004-0.904-0.008-1.37-0.012-0.675-0.008-0.675-0.008-1.363-0.016-1.165-0.037-1.165-0.037-2.074 0.495-0.141-1.465-0.141-1.465 0-3.155 1.588-1.869 2.644-1.998 4.958-1.352z"></path>
<path fill="#c3c3c3" d="M7.211 10.366c0.297 0 0.595 0 0.901 0 0.149 1.041 0.297 2.082 0.451 3.155 0.446 0.149 0.892 0.297 1.352 0.451 0 0.297 0 0.595 0 0.901 1.807 0.081 1.807 0.081 3.606 0 0.297-0.297 0.595-0.595 0.901-0.901-0.149 0.595-0.297 1.19-0.451 1.803-0.342 0.027-0.684 0.055-1.037 0.083-0.672 0.057-0.672 0.057-1.357 0.114-0.444 0.037-0.889 0.073-1.347 0.111-1.259 0.106-1.259 0.106-2.569 0.593-0.451-0.451-0.451-0.451-0.495-1.776 0.005-0.539 0.010-1.077 0.016-1.632 0.004-0.54 0.008-1.079 0.012-1.636 0.005-0.418 0.010-0.835 0.016-1.266z"></path>
<path fill="#8d8d8d" d="M14.423 16.225c1.19 0 2.38 0 3.606 0-0.446 0.223-0.446 0.223-0.901 0.451 0 0.446 0 0.892 0 1.352 3.123 0 6.247 0 9.465 0 0 0.149 0 0.297 0 0.451-4.016 0-8.032 0-12.169 0 0-0.744 0-1.487 0-2.254z"></path>
<path fill="#b3b3b3" d="M44.62 2.704c0.297 0 0.595 0 0.901 0 0.432 2.763 0.44 5.327 0.254 8.113-0.024 0.392-0.047 0.784-0.071 1.188-0.058 0.956-0.12 1.912-0.182 2.868-0.901-0.901-0.901-0.901-1.004-2.038 0.005-0.467 0.009-0.935 0.014-1.416 0.003-0.505 0.006-1.011 0.009-1.532 0.008-0.53 0.015-1.060 0.023-1.606 0.004-0.533 0.008-1.067 0.012-1.616 0.011-1.321 0.026-2.641 0.044-3.961z"></path>
<path fill="#e9e9e9" d="M46.423 17.577c1.934 0 3.867 0 5.859 0 0 0.595 0 1.19 0 1.803-0.347-0.005-0.695-0.010-1.053-0.016-0.452-0.004-0.904-0.008-1.37-0.012-0.675-0.008-0.675-0.008-1.363-0.016-1.165-0.037-1.165-0.037-2.074 0.495 0-0.744 0-1.487 0-2.254z"></path>
<path fill="#b3b3b3" d="M51.831 13.521c0.451 0.451 0.451 0.451 0.479 1.831-0.009 0.437-0.019 0.874-0.028 1.324-0.297 0-0.595 0-0.901 0 0-0.446 0-0.892 0-1.352-2.107-0.147-3.23 0.133-4.958 1.352 0-0.595 0-1.19 0-1.803 3.38-1.591 3.38-1.591 5.408-1.352z"></path>
<path fill="#d9d9d9" d="M13.972 15.324c0.149 0.446 0.297 0.892 0.451 1.352-0.347 0.022-0.695 0.044-1.053 0.067-0.452 0.034-0.904 0.067-1.37 0.102-0.45 0.031-0.899 0.063-1.363 0.095-1.242 0.080-1.242 0.080-2.074 1.088-0.149-0.595-0.297-1.19-0.451-1.803 1.158-0.579 2.148-0.599 3.437-0.704 0.678-0.057 0.678-0.057 1.37-0.114 0.347-0.027 0.695-0.055 1.053-0.083z"></path>
<path fill="#dcdcdc" d="M37.859 15.324c0.883 0.063 1.765 0.13 2.648 0.197 0.737 0.055 0.737 0.055 1.489 0.111 1.271 0.143 1.271 0.143 2.173 0.593-0.149 0.595-0.297 1.19-0.451 1.803 0-0.446 0-0.892 0-1.352-1.785 0-3.57 0-5.408 0-0.149 0.297-0.297 0.595-0.451 0.901 0-0.744 0-1.487 0-2.254z"></path>
<path fill="#bfbfbf" d="M40.113 13.070c0.873 0.366 0.873 0.366 1.803 0.901 0.149 0.446 0.297 0.892 0.451 1.352-2.986 0.507-2.986 0.507-4.507 0 0.149-0.446 0.297-0.892 0.451-1.352 0.297 0.149 0.595 0.297 0.901 0.451 0.297-0.446 0.595-0.892 0.901-1.352z"></path>
<path fill="#a2a2a2" d="M0 12.62c2.677 0.446 2.677 0.446 5.408 0.901 0 0.297 0 0.595 0 0.901-0.837-0.014-0.837-0.014-1.69-0.028-1.313-0.002-2.461 0.060-3.718 0.479 0-0.744 0-1.487 0-2.254z"></path>
<path fill="#a6a6a6" d="M52.282 13.070c-0.149 0.297-0.297 0.595-0.451 0.901-1.047 0.181-2.1 0.328-3.155 0.451-0.752 0.144-1.504 0.292-2.254 0.451 0.149-0.446 0.297-0.892 0.451-1.352 1.964-0.755 3.378-1.066 5.408-0.451z"></path>
<path fill="#ababab" d="M7.662 10.366c0.149 0 0.297 0 0.451 0 0.149 1.041 0.297 2.082 0.451 3.155 0.446 0.149 0.892 0.297 1.352 0.451-0.62 0.901-0.62 0.901-1.352 1.803-0.297 0-0.595 0-0.901 0 0-1.785 0-3.57 0-5.408z"></path>
<path fill="#b8b8b8" d="M8.113 28.394c0 1.19 0 2.38 0 3.606-0.446 0-0.892 0-1.352 0 0-1.041 0-2.082 0-3.155 0.901-0.451 0.901-0.451 1.352-0.451z"></path>
<path fill="#bebebe" d="M50.028 14.423c-0.574 1.149-1.097 1.293-2.254 1.803-0.446 0.149-0.892 0.297-1.352 0.451 0-0.595 0-1.19 0-1.803 2.084-0.958 2.084-0.958 3.606-0.451z"></path>
<path fill="#c0c0c0" d="M2.254 14.423c0.446 0.149 0.892 0.297 1.352 0.451-1.179 0.956-2.342 1.862-3.606 2.704 0-0.446 0-0.892 0-1.352 0.297 0 0.595 0 0.901 0 0.149-0.446 0.297-0.892 0.451-1.352 0.297-0.149 0.595-0.297 0.901-0.451z"></path>
<path fill="#757575" d="M36.056 16.225c0.595 0 1.19 0 1.803 0 0 0.744 0 1.487 0 2.254-0.595-0.149-1.19-0.297-1.803-0.451 0-0.595 0-1.19 0-1.803z"></path>
</symbol>

</defs>
</svg>

